<?xml version="1.0" encoding="UTF-8" standalone="no"?>
<svg width="479px" height="258px" viewBox="0 0 479 258" version="1.1" xmlns="http://www.w3.org/2000/svg" xmlns:xlink="http://www.w3.org/1999/xlink" xmlns:sketch="http://www.bohemiancoding.com/sketch/ns">
    <!-- Generator: Sketch 3.3.2 (12043) - http://www.bohemiancoding.com/sketch -->
    <title>Logo-color-large</title>
    <desc>Created with Sketch.</desc>
    <defs></defs>
    <g id="Style-Sheet" stroke="none" stroke-width="1" fill="none" fill-rule="evenodd" sketch:type="MSPage">
        <g id="Artboard-1" sketch:type="MSArtboardGroup" transform="translate(0.000000, -79.000000)">
            <g id="Slices" sketch:type="MSLayerGroup" transform="translate(0.000000, -1.000000)"></g>
            <g id="Send-Feedback" sketch:type="MSLayerGroup" transform="translate(-20.000000, -21.000000)"></g>
            <g id="logo-copy" sketch:type="MSLayerGroup" transform="translate(45.000000, 110.000000)">
                <path d="M114.035225,0.178940678 L196.989123,144.002076 L31.0813276,144.002076 L114.035225,0.178940678" id="Fill-1" fill="#1C5889" sketch:type="MSShapeGroup"></path>
                <path d="M196.610766,0.180677966 L280.319642,143.562542 L197.365744,144.000339 L114.413582,144.436398 L196.610766,0.180677966" id="Fill-2" fill="#2671A2" sketch:type="MSShapeGroup"></path>
                <path d="M362.896918,144.002076 L196.989123,144.002076 L279.94302,0.178940678 L362.896918,144.002076 Z" id="Fill-3" fill="#3A89BB" sketch:type="MSShapeGroup"></path>
                <path d="M15.6614756,176.063092 L2.68309751,159.578275 L0.724956261,159.578275 L0.724956261,191.546069 L6.05292199,191.546069 L6.05292199,171.600351 L15.2971702,183.394737 L16.0257809,183.394737 L25.224491,171.600351 L25.224491,191.546069 L30.5524567,191.546069 L30.5524567,159.578275 L28.5943154,159.578275 L15.6614756,176.063092 Z M58.8570274,180.480294 C58.8570274,172.784344 52.9370655,168.959138 47.0626417,169.050214 C41.3248325,169.14129 35.6780996,172.920958 35.6780996,180.480294 C35.6780996,188.130707 41.461447,191.955913 47.2447944,191.955913 C53.0281418,191.955913 58.8570274,188.130707 58.8570274,180.480294 L58.8570274,180.480294 Z M40.5962218,180.480294 C40.5962218,175.835401 43.7838936,173.512955 47.0626417,173.421878 C50.4324662,173.330802 53.893367,175.698787 53.893367,180.480294 C53.893367,185.170726 50.6146189,187.53871 47.3358708,187.584249 C43.9660463,187.629787 40.5962218,185.261802 40.5962218,180.480294 L40.5962218,180.480294 Z M78.9998979,169.596672 L78.9998979,182.165207 C78.9998979,185.671646 76.586375,187.948554 73.4442414,187.948554 C70.5297986,187.948554 68.6627337,185.80826 68.7082718,182.301821 L68.7082718,169.596672 L63.6990733,169.596672 L63.6990733,182.301821 C63.6990733,187.675325 65.8393672,191.910375 71.8959436,191.910375 C74.9925391,191.910375 77.9980582,190.954073 79.5008178,187.994092 C79.5008178,192.730062 83.5081766,192.138066 86.3315431,191.637146 L86.2860049,188.403936 C84.1912492,188.631627 83.9635583,187.903016 83.9635583,185.261802 L83.9635583,169.596672 L78.9998979,169.596672 Z M112.622066,191.546069 L112.622066,178.658768 C112.622066,173.239726 109.889776,169.14129 103.924276,169.14129 C101.055372,169.14129 97.6855471,170.188668 96.4560165,172.966497 C96.4560165,168.776985 92.7674249,168.959138 89.5797531,169.551134 L89.5797531,172.784344 C91.8111233,172.647729 91.9021997,173.37634 91.9021997,175.972016 L91.9021997,191.546069 L96.9113982,191.546069 L96.9113982,179.068611 C96.9113982,175.516634 99.3704593,173.103111 102.467055,173.103111 C105.427036,173.148649 107.658406,175.243405 107.612868,178.658768 L107.612868,191.546069 L112.622066,191.546069 Z M125.41219,162.857023 L121.040525,162.857023 L120.539606,169.64221 L116.076865,169.64221 L116.076865,172.87542 L120.539606,173.194187 L120.539606,183.167046 C120.539606,191.77376 126.414029,193.504211 133.927827,191.181764 L133.426907,187.447634 C128.918629,189.04147 125.41219,188.677165 125.41219,183.07597 L125.41219,173.194187 L133.017064,173.194187 L133.017064,169.64221 L125.41219,169.64221 L125.41219,162.857023 Z M152.294709,187.857478 C152.431324,192.183604 155.118076,192.183604 158.578976,191.591607 L158.4879,188.768241 C156.119915,188.995932 156.210992,187.675325 156.210992,185.626107 L156.210992,176.973855 C156.210992,170.917279 151.475022,169.050214 146.147056,169.050214 C143.232614,169.050214 140.272633,169.64221 138.041262,170.780664 L138.769873,174.332642 C141.502163,172.966497 151.383946,171.053893 151.383946,176.837241 L151.383946,179.023073 C149.425805,177.930157 147.012282,177.383699 144.871988,177.383699 C140.044942,177.383699 136.219736,179.888298 136.35635,185.125188 C136.35635,189.405775 140.227094,191.955913 144.234453,191.955913 C147.331049,191.955913 150.837488,190.77192 152.294709,187.857478 L152.294709,187.857478 Z M151.383946,184.032271 C150.883026,186.8101 147.831969,188.03963 145.236293,188.03963 C143.232614,188.03963 141.228934,187.037791 141.228934,184.851959 C141.228934,182.165207 143.278152,180.753523 145.691675,180.707985 C147.649816,180.662447 149.744572,181.254443 151.383946,182.210745 L151.383946,184.032271 Z M162.601335,162.811485 C162.601335,164.815164 164.149633,165.817004 165.652393,165.771466 C167.109614,165.725928 168.566835,164.769626 168.566835,162.811485 C168.566835,160.898882 167.109614,159.897042 165.606854,159.897042 C164.104095,159.897042 162.601335,160.853344 162.601335,162.811485 L162.601335,162.811485 Z M168.065915,169.824363 L163.102255,169.824363 L163.102255,191.546069 L168.065915,191.546069 L168.065915,169.824363 Z M196.041351,191.546069 L196.041351,178.658768 C196.041351,173.239726 193.309061,169.14129 187.343561,169.14129 C184.474656,169.14129 181.104832,170.188668 179.875301,172.966497 C179.875301,168.776985 176.186709,168.959138 172.999038,169.551134 L172.999038,172.784344 C175.230408,172.647729 175.321484,173.37634 175.321484,175.972016 L175.321484,191.546069 L180.330683,191.546069 L180.330683,179.068611 C180.330683,175.516634 182.789744,173.103111 185.886339,173.103111 C188.84632,173.148649 191.077691,175.243405 191.032152,178.658768 L191.032152,191.546069 L196.041351,191.546069 Z M200.56278,175.653248 C200.56278,185.899336 208.076577,191.864836 216.72883,191.864836 C223.195249,191.864836 229.752746,188.449474 231.346582,180.662447 L226.200769,180.662447 C224.789085,184.897497 221.100494,187.037791 216.72883,187.037791 C210.216871,187.037791 205.890745,181.983054 205.890745,175.653248 C205.890745,168.868061 210.216871,164.132092 216.72883,164.132092 C220.918341,164.17763 224.470318,165.999157 226.064154,169.960977 L231.164429,169.960977 C229.479517,162.765947 223.013097,159.305046 216.774368,159.305046 C208.076577,159.305046 200.56278,165.361622 200.56278,175.653248 L200.56278,175.653248 Z M236.097551,158.21213 L236.097551,183.713504 C236.097551,191.045149 239.194147,192.7756 245.933796,191.682684 L245.751643,187.857478 C241.971975,188.449474 241.015673,187.31102 241.015673,183.667966 L241.015673,158.21213 L236.097551,158.21213 Z M248.999853,162.811485 C248.999853,164.815164 250.548151,165.817004 252.05091,165.771466 C253.508132,165.725928 254.965353,164.769626 254.965353,162.811485 C254.965353,160.898882 253.508132,159.897042 252.005372,159.897042 C250.502612,159.897042 248.999853,160.853344 248.999853,162.811485 L248.999853,162.811485 Z M254.464433,169.824363 L249.500773,169.824363 L249.500773,191.546069 L254.464433,191.546069 L254.464433,169.824363 Z M295.737014,191.546069 L295.737014,178.704306 C295.873628,173.421878 294.325331,169.14129 288.314292,169.14129 C284.944468,169.14129 281.529105,170.370821 280.299575,173.285264 C279.43435,170.598512 277.476208,169.14129 273.651002,169.14129 C270.645483,169.14129 267.412273,170.507435 266.182742,173.194187 C266.319357,168.594832 262.220922,168.822523 259.306479,169.551134 L259.352017,172.602191 C261.537849,172.465577 261.674464,173.285264 261.674464,175.835401 L261.674464,191.546069 L266.638124,191.546069 L266.638124,178.886458 C266.638124,175.425558 268.869494,173.239726 271.96609,173.194187 C275.062685,173.148649 276.474369,175.425558 276.474369,178.84092 L276.474369,191.546069 L281.346953,191.546069 L281.346953,178.84092 C281.392491,175.380019 283.441708,173.194187 286.492766,173.148649 C289.407208,173.103111 290.773354,175.425558 290.727815,178.704306 L290.727815,191.546069 L295.737014,191.546069 Z M301.80859,190.407615 C304.631957,191.500531 308.047319,192.183604 311.052839,192.229142 C317.610335,192.27468 323.575835,189.269161 323.575835,180.799062 C323.575835,173.786184 318.839865,169.277905 313.102056,169.277905 C311.143915,169.277905 308.867006,169.824363 306.772251,170.917279 L306.772251,158.257668 L301.80859,158.257668 L301.80859,190.407615 Z M306.681174,175.197867 C308.502701,174.104951 310.597457,173.649569 312.327907,173.695107 C315.74327,173.831722 318.612175,176.199706 318.612175,180.799062 C318.612175,186.127027 315.470041,188.130707 311.553758,188.176245 C310.096537,188.176245 308.27501,187.903016 306.681174,187.447634 L306.681174,175.197867 Z M338.709507,169.095752 C332.744007,169.095752 327.461579,172.784344 327.324965,180.115989 C327.097274,187.53871 332.42524,192.183604 339.665808,192.046989 C342.443637,192.046989 345.403618,191.318378 347.953755,190.179924 L347.316221,186.491333 C344.720545,187.629787 342.079331,187.994092 339.347041,187.857478 C335.339682,187.857478 332.197549,185.489493 332.197549,181.482134 L348.409137,181.482134 C349.866358,174.196027 346.405457,169.095752 338.709507,169.095752 L338.709507,169.095752 Z M338.663969,172.920958 C341.806102,172.920958 344.538392,174.651409 344.401778,177.975695 L332.288625,177.975695 C332.971698,174.514794 335.385221,172.920958 338.663969,172.920958 L338.663969,172.920958 Z M359.171145,172.784344 C358.943454,169.232367 355.391477,168.685909 352.158267,169.414519 L352.203805,172.784344 C354.57179,172.647729 354.57179,173.649569 354.57179,175.60771 L354.57179,191.546069 L359.489912,191.546069 L359.489912,178.84092 C359.489912,175.288943 362.131126,173.37634 365.091106,173.37634 C366.684942,173.37634 368.142164,173.831722 369.462771,174.696947 L370.692301,170.416359 C369.280618,169.368981 367.459091,168.822523 365.637565,168.868061 C362.950813,168.868061 360.03637,170.234206 359.171145,172.784344 L359.171145,172.784344 Z M372.41665,185.079649 C372.780955,190.54423 377.608001,192.092527 382.480585,192.092527 C387.353169,192.092527 392.0436,189.997772 392.0436,185.125188 C392.0436,179.933836 387.58086,179.159687 382.981505,178.567691 C379.566142,178.157848 377.790153,177.748004 377.744615,175.926477 C377.608001,173.968336 379.975986,172.87542 382.252894,172.87542 C384.575341,172.87542 387.216554,173.558493 387.216554,175.744325 L391.588219,175.744325 C391.724833,171.372661 387.307631,169.14129 382.252894,169.14129 C377.471386,169.14129 372.917569,171.327122 372.917569,176.017554 C373.054184,180.981214 378.108921,181.482134 382.617199,182.07413 C385.486104,182.438436 387.535322,183.030432 387.535322,185.034111 C387.398707,187.720863 384.711955,188.403936 382.298432,188.403936 C379.930447,188.403936 377.425848,187.356558 377.289234,185.079649 L372.41665,185.079649 Z" id="MountainClimbers" fill="#1C5889" sketch:type="MSShapeGroup"></path>
            </g>
        </g>
    </g>
</svg>